<?xml version="1.0" encoding="UTF-8" standalone="no"?>
<!DOCTYPE svg PUBLIC "-//W3C//DTD SVG 1.1//EN" "http://www.w3.org/Graphics/SVG/1.1/DTD/svg11.dtd">
<svg width="100%" height="100%" viewBox="0 0 2105 1002" version="1.1" xmlns="http://www.w3.org/2000/svg" xmlns:xlink="http://www.w3.org/1999/xlink" xml:space="preserve" xmlns:serif="http://www.serif.com/" style="fill-rule:evenodd;clip-rule:evenodd;stroke-linecap:round;stroke-linejoin:round;stroke-miterlimit:1.5;">
    <g transform="matrix(1,0,0,1,-2213.73,-4797.3)">
        <g id="Logotype_title" transform="matrix(0.848285,0,0,0.481961,2213.73,4365.39)">
            <rect x="0" y="896.144" width="2480.32" height="2078.34" style="fill:none;"/>
            <clipPath id="_clip1">
                <rect x="0" y="896.144" width="2480.32" height="2078.34"/>
            </clipPath>
            <g clip-path="url(#_clip1)">
                <g transform="matrix(0.802022,0,0,1.41161,906.633,-567.839)">
                    <g>
                        <g transform="matrix(213.363,0,0,213.363,0,2190.08)">
                            <path d="M0.463,0.008L0.437,-0.036C0.375,-0.004 0.322,0.012 0.277,0.012C0.204,0.012 0.146,-0.02 0.102,-0.084C0.064,-0.139 0.045,-0.202 0.045,-0.272C0.045,-0.348 0.074,-0.409 0.133,-0.456C0.185,-0.498 0.263,-0.519 0.366,-0.519C0.381,-0.519 0.399,-0.518 0.42,-0.516L0.42,-0.577C0.42,-0.616 0.418,-0.673 0.413,-0.748C0.446,-0.753 0.491,-0.762 0.549,-0.773C0.539,-0.644 0.534,-0.526 0.534,-0.417C0.534,-0.386 0.535,-0.339 0.538,-0.276C0.54,-0.213 0.541,-0.166 0.541,-0.135C0.541,-0.114 0.549,-0.083 0.564,-0.041L0.463,0.008ZM0.416,-0.431C0.399,-0.432 0.383,-0.432 0.37,-0.432C0.234,-0.432 0.166,-0.379 0.166,-0.273C0.166,-0.224 0.177,-0.182 0.199,-0.146C0.225,-0.104 0.26,-0.083 0.303,-0.083C0.344,-0.083 0.384,-0.097 0.423,-0.125C0.423,-0.154 0.422,-0.205 0.42,-0.278C0.417,-0.347 0.416,-0.398 0.416,-0.431Z" style="fill:rgb(170,195,233);fill-rule:nonzero;"/>
                        </g>
                        <g transform="matrix(213.363,0,0,213.363,130.578,2190.08)">
                            <path d="M0.527,-0.018C0.458,0.002 0.393,0.012 0.332,0.012C0.242,0.012 0.171,-0.013 0.12,-0.064C0.068,-0.115 0.042,-0.184 0.042,-0.272C0.042,-0.355 0.066,-0.422 0.113,-0.472C0.16,-0.523 0.223,-0.548 0.301,-0.548C0.379,-0.548 0.437,-0.524 0.473,-0.474C0.509,-0.425 0.527,-0.346 0.527,-0.239L0.194,-0.239C0.204,-0.137 0.26,-0.086 0.363,-0.086C0.411,-0.086 0.466,-0.097 0.527,-0.12L0.527,-0.018ZM0.192,-0.321L0.385,-0.321C0.385,-0.412 0.355,-0.458 0.296,-0.458C0.236,-0.458 0.202,-0.412 0.192,-0.321ZM0.484,-0.783L0.366,-0.626L0.233,-0.626L0.115,-0.783L0.203,-0.783L0.299,-0.687L0.3,-0.687L0.396,-0.783L0.484,-0.783Z" style="fill:rgb(170,195,233);fill-rule:nonzero;"/>
                        </g>
                        <g transform="matrix(213.363,0,0,213.363,255.595,2190.08)">
                            <path d="M0.341,-0.442L0.237,-0.431C0.236,-0.338 0.232,-0.195 0.224,-0.002L0.12,0.008C0.117,-0.089 0.113,-0.233 0.109,-0.422L-0.002,-0.409C0.01,-0.434 0.021,-0.464 0.03,-0.497L0.111,-0.515C0.111,-0.557 0.11,-0.594 0.109,-0.627C0.137,-0.634 0.184,-0.646 0.249,-0.663C0.242,-0.608 0.238,-0.564 0.237,-0.532L0.351,-0.552C0.349,-0.525 0.346,-0.488 0.341,-0.442Z" style="fill:rgb(170,195,233);fill-rule:nonzero;"/>
                        </g>
                        <g transform="matrix(213.363,0,0,213.363,328.779,2190.08)">
                            <path d="M0.224,0.009C0.148,0.009 0.088,0.006 0.043,-0L0.052,-0.103C0.105,-0.088 0.163,-0.081 0.224,-0.081C0.293,-0.081 0.328,-0.103 0.328,-0.147C0.328,-0.171 0.303,-0.191 0.254,-0.206C0.186,-0.227 0.142,-0.243 0.123,-0.255C0.081,-0.281 0.06,-0.32 0.06,-0.372C0.06,-0.473 0.144,-0.524 0.313,-0.524C0.351,-0.524 0.388,-0.523 0.425,-0.52L0.416,-0.417C0.393,-0.419 0.366,-0.423 0.335,-0.43C0.308,-0.436 0.288,-0.439 0.273,-0.439C0.209,-0.439 0.177,-0.42 0.177,-0.381C0.177,-0.36 0.202,-0.342 0.253,-0.327C0.321,-0.308 0.365,-0.291 0.386,-0.278C0.429,-0.251 0.451,-0.212 0.451,-0.159C0.451,-0.102 0.426,-0.058 0.375,-0.028C0.334,-0.003 0.283,0.009 0.224,0.009Z" style="fill:rgb(170,195,233);fill-rule:nonzero;"/>
                        </g>
                        <g transform="matrix(213.363,0,0,213.363,430.98,2190.08)">
                            <path d="M0.443,0.007C0.438,-0.031 0.431,-0.08 0.421,-0.141C0.414,-0.171 0.405,-0.193 0.392,-0.206C0.379,-0.219 0.356,-0.228 0.325,-0.235C0.304,-0.24 0.263,-0.247 0.203,-0.255C0.203,-0.202 0.204,-0.117 0.207,-0.002C0.166,-0.002 0.122,-0.001 0.075,0.002C0.083,-0.105 0.087,-0.212 0.087,-0.318L0.087,-0.516C0.087,-0.578 0.084,-0.656 0.078,-0.75C0.117,-0.756 0.163,-0.764 0.216,-0.774C0.209,-0.669 0.205,-0.537 0.205,-0.378L0.205,-0.327C0.28,-0.369 0.34,-0.431 0.387,-0.512C0.413,-0.512 0.461,-0.513 0.532,-0.515C0.485,-0.436 0.424,-0.371 0.35,-0.319C0.417,-0.31 0.462,-0.296 0.485,-0.275C0.508,-0.254 0.527,-0.211 0.541,-0.146C0.546,-0.123 0.554,-0.076 0.564,-0.007L0.443,0.007Z" style="fill:rgb(170,195,233);fill-rule:nonzero;"/>
                        </g>
                        <g transform="matrix(213.363,0,0,213.363,557.504,2190.08)">
                            <path d="M0.416,0.015C0.409,0.006 0.4,-0.007 0.387,-0.025C0.336,0.002 0.271,0.015 0.193,0.015C0.142,0.015 0.101,-0.004 0.072,-0.042C0.047,-0.075 0.035,-0.117 0.035,-0.166C0.035,-0.242 0.072,-0.296 0.147,-0.328C0.188,-0.345 0.258,-0.359 0.359,-0.37C0.357,-0.396 0.349,-0.414 0.336,-0.424C0.323,-0.433 0.3,-0.438 0.269,-0.438C0.223,-0.438 0.167,-0.425 0.102,-0.399C0.108,-0.434 0.112,-0.469 0.115,-0.506C0.154,-0.518 0.201,-0.524 0.257,-0.524L0.292,-0.524C0.349,-0.524 0.393,-0.513 0.422,-0.49C0.451,-0.466 0.468,-0.428 0.475,-0.373C0.476,-0.362 0.48,-0.304 0.486,-0.197C0.49,-0.128 0.5,-0.069 0.515,-0.022L0.416,0.015ZM0.359,-0.288C0.29,-0.278 0.248,-0.271 0.233,-0.266C0.184,-0.249 0.159,-0.221 0.159,-0.182C0.159,-0.153 0.165,-0.128 0.177,-0.108C0.19,-0.085 0.208,-0.073 0.231,-0.073C0.29,-0.073 0.337,-0.084 0.372,-0.107L0.359,-0.288ZM0.31,-0.566L0.224,-0.567C0.258,-0.627 0.28,-0.682 0.289,-0.731L0.425,-0.731C0.41,-0.68 0.372,-0.625 0.31,-0.566Z" style="fill:rgb(170,195,233);fill-rule:nonzero;"/>
                        </g>
                        <g transform="matrix(213.363,0,0,213.363,736.089,2190.08)">
                            <path d="M0.224,0.009C0.148,0.009 0.088,0.006 0.043,-0L0.052,-0.103C0.105,-0.088 0.163,-0.081 0.224,-0.081C0.293,-0.081 0.328,-0.103 0.328,-0.147C0.328,-0.171 0.303,-0.191 0.254,-0.206C0.186,-0.227 0.142,-0.243 0.123,-0.255C0.081,-0.281 0.06,-0.32 0.06,-0.372C0.06,-0.473 0.144,-0.524 0.313,-0.524C0.351,-0.524 0.388,-0.523 0.425,-0.52L0.416,-0.417C0.393,-0.419 0.366,-0.423 0.335,-0.43C0.308,-0.436 0.288,-0.439 0.273,-0.439C0.209,-0.439 0.177,-0.42 0.177,-0.381C0.177,-0.36 0.202,-0.342 0.253,-0.327C0.321,-0.308 0.365,-0.291 0.386,-0.278C0.429,-0.251 0.451,-0.212 0.451,-0.159C0.451,-0.102 0.426,-0.058 0.375,-0.028C0.334,-0.003 0.283,0.009 0.224,0.009Z" style="fill:rgb(170,195,233);fill-rule:nonzero;"/>
                        </g>
                        <g transform="matrix(213.363,0,0,213.363,838.29,2190.08)">
                            <path d="M0.443,0.007C0.438,-0.031 0.431,-0.08 0.421,-0.141C0.414,-0.171 0.405,-0.193 0.392,-0.206C0.379,-0.219 0.356,-0.228 0.325,-0.235C0.304,-0.24 0.263,-0.247 0.203,-0.255C0.203,-0.202 0.204,-0.117 0.207,-0.002C0.166,-0.002 0.122,-0.001 0.075,0.002C0.083,-0.105 0.087,-0.212 0.087,-0.318L0.087,-0.516C0.087,-0.578 0.084,-0.656 0.078,-0.75C0.117,-0.756 0.163,-0.764 0.216,-0.774C0.209,-0.669 0.205,-0.537 0.205,-0.378L0.205,-0.327C0.28,-0.369 0.34,-0.431 0.387,-0.512C0.413,-0.512 0.461,-0.513 0.532,-0.515C0.485,-0.436 0.424,-0.371 0.35,-0.319C0.417,-0.31 0.462,-0.296 0.485,-0.275C0.508,-0.254 0.527,-0.211 0.541,-0.146C0.546,-0.123 0.554,-0.076 0.564,-0.007L0.443,0.007Z" style="fill:rgb(170,195,233);fill-rule:nonzero;"/>
                        </g>
                        <g transform="matrix(213.363,0,0,213.363,964.814,2190.08)">
                            <path d="M0.458,0.013L0.434,-0.023C0.387,0.001 0.328,0.013 0.259,0.013C0.194,0.013 0.147,-0.005 0.116,-0.041C0.092,-0.07 0.077,-0.112 0.072,-0.167C0.071,-0.184 0.07,-0.232 0.07,-0.312C0.07,-0.39 0.067,-0.457 0.062,-0.512C0.115,-0.514 0.16,-0.516 0.199,-0.519C0.192,-0.448 0.188,-0.354 0.188,-0.237C0.188,-0.184 0.193,-0.147 0.204,-0.124C0.219,-0.092 0.247,-0.076 0.29,-0.076C0.341,-0.076 0.382,-0.087 0.413,-0.108C0.414,-0.188 0.415,-0.253 0.415,-0.302C0.415,-0.375 0.413,-0.446 0.409,-0.513L0.538,-0.517C0.534,-0.403 0.532,-0.289 0.532,-0.174C0.532,-0.123 0.54,-0.074 0.555,-0.028L0.458,0.013Z" style="fill:rgb(170,195,233);fill-rule:nonzero;"/>
                        </g>
                        <g transform="matrix(213.363,0,0,213.363,1094.11,2190.08)">
                            <path d="M0.257,-0.002L0.221,-0.034C0.221,0.007 0.223,0.075 0.227,0.169L0.09,0.205C0.099,0.126 0.103,0.031 0.103,-0.079C0.103,-0.276 0.099,-0.415 0.09,-0.498C0.183,-0.517 0.249,-0.527 0.286,-0.527C0.295,-0.527 0.309,-0.527 0.327,-0.526L0.369,-0.526C0.436,-0.526 0.491,-0.504 0.534,-0.459C0.575,-0.416 0.595,-0.362 0.595,-0.297C0.595,-0.209 0.561,-0.137 0.494,-0.082C0.43,-0.029 0.351,-0.003 0.257,-0.002ZM0.268,-0.438C0.253,-0.438 0.237,-0.437 0.222,-0.435C0.22,-0.379 0.219,-0.331 0.219,-0.292L0.219,-0.171C0.219,-0.152 0.22,-0.124 0.221,-0.088L0.255,-0.088C0.318,-0.088 0.37,-0.107 0.41,-0.145C0.449,-0.182 0.469,-0.231 0.469,-0.291C0.469,-0.35 0.451,-0.39 0.414,-0.412C0.385,-0.429 0.337,-0.438 0.268,-0.438Z" style="fill:rgb(170,195,233);fill-rule:nonzero;"/>
                        </g>
                        <g transform="matrix(213.363,0,0,213.363,1227.25,2190.08)">
                            <path d="M0.209,-0.624C0.188,-0.608 0.167,-0.597 0.148,-0.591C0.143,-0.589 0.121,-0.583 0.081,-0.574C0.077,-0.616 0.068,-0.661 0.053,-0.708C0.096,-0.721 0.126,-0.73 0.141,-0.735C0.172,-0.746 0.2,-0.759 0.223,-0.774L0.209,-0.624ZM0.198,-0.239C0.198,-0.166 0.2,-0.087 0.204,-0.002C0.197,-0.002 0.153,0.001 0.071,0.006C0.078,-0.061 0.082,-0.13 0.082,-0.199L0.082,-0.317C0.082,-0.37 0.079,-0.43 0.072,-0.497C0.115,-0.504 0.16,-0.512 0.207,-0.521C0.201,-0.421 0.198,-0.327 0.198,-0.239Z" style="fill:rgb(170,195,233);fill-rule:nonzero;"/>
                        </g>
                        <g transform="matrix(213.363,0,0,213.363,1287.21,2190.08)">
                            <path d="M0.435,0.02C0.435,-0.017 0.434,-0.07 0.433,-0.141C0.432,-0.204 0.431,-0.253 0.431,-0.286C0.431,-0.33 0.424,-0.362 0.411,-0.383C0.396,-0.406 0.367,-0.423 0.326,-0.433C0.305,-0.438 0.284,-0.441 0.263,-0.441C0.245,-0.441 0.223,-0.438 0.197,-0.431C0.197,-0.424 0.196,-0.409 0.195,-0.384C0.194,-0.365 0.193,-0.349 0.193,-0.338C0.193,-0.211 0.195,-0.098 0.2,0.001C0.149,0.002 0.105,0.004 0.067,0.005C0.072,-0.063 0.074,-0.129 0.074,-0.192C0.074,-0.313 0.071,-0.418 0.065,-0.507C0.157,-0.522 0.229,-0.529 0.28,-0.529C0.441,-0.529 0.529,-0.476 0.544,-0.371C0.547,-0.346 0.549,-0.308 0.549,-0.257C0.549,-0.161 0.551,-0.081 0.556,-0.018C0.527,-0.011 0.486,0.002 0.435,0.02Z" style="fill:rgb(170,195,233);fill-rule:nonzero;"/>
                        </g>
                        <g transform="matrix(213.363,0,0,213.363,1416.08,2190.08)">
                            <path d="M0.416,0.015C0.409,0.006 0.4,-0.007 0.387,-0.025C0.336,0.002 0.271,0.015 0.193,0.015C0.142,0.015 0.101,-0.004 0.072,-0.042C0.047,-0.075 0.035,-0.117 0.035,-0.166C0.035,-0.242 0.072,-0.296 0.147,-0.328C0.188,-0.345 0.258,-0.359 0.359,-0.37C0.357,-0.396 0.349,-0.414 0.336,-0.424C0.323,-0.433 0.3,-0.438 0.269,-0.438C0.223,-0.438 0.167,-0.425 0.102,-0.399C0.108,-0.434 0.112,-0.469 0.115,-0.506C0.154,-0.518 0.201,-0.524 0.257,-0.524L0.292,-0.524C0.349,-0.524 0.393,-0.513 0.422,-0.49C0.451,-0.466 0.468,-0.428 0.475,-0.373C0.476,-0.362 0.48,-0.304 0.486,-0.197C0.49,-0.128 0.5,-0.069 0.515,-0.022L0.416,0.015ZM0.359,-0.288C0.29,-0.278 0.248,-0.271 0.233,-0.266C0.184,-0.249 0.159,-0.221 0.159,-0.182C0.159,-0.153 0.165,-0.128 0.177,-0.108C0.19,-0.085 0.208,-0.073 0.231,-0.073C0.29,-0.073 0.337,-0.084 0.372,-0.107L0.359,-0.288Z" style="fill:rgb(170,195,233);fill-rule:nonzero;"/>
                        </g>
                    </g>
                </g>
                <g transform="matrix(1.17885,0,0,2.07486,-3137.67,896.144)">
                    <rect x="2658.47" y="0" width="2094.53" height="1001.68" style="fill:none;"/>
                </g>
                <g transform="matrix(1.84749,0,0,3.25171,881.833,-4922.91)">
                    <g transform="matrix(213.363,0,0,213.363,0,2190.08)">
                        <path d="M0.86,-0.342C0.839,-0.256 0.805,-0.142 0.758,-0.001C0.711,-0 0.654,0.002 0.586,0.006C0.575,-0.058 0.559,-0.135 0.538,-0.224C0.521,-0.298 0.504,-0.372 0.487,-0.445C0.466,-0.378 0.436,-0.277 0.397,-0.142C0.386,-0.1 0.372,-0.054 0.357,-0.004C0.298,-0.001 0.244,0.001 0.195,0.004C0.173,-0.107 0.151,-0.218 0.128,-0.329C0.1,-0.458 0.07,-0.567 0.037,-0.656L0.192,-0.688C0.201,-0.631 0.214,-0.547 0.233,-0.438L0.287,-0.144L0.421,-0.606L0.576,-0.643C0.589,-0.57 0.626,-0.403 0.686,-0.14C0.731,-0.285 0.761,-0.43 0.776,-0.575C0.778,-0.596 0.782,-0.632 0.787,-0.683L0.938,-0.67C0.921,-0.595 0.895,-0.486 0.86,-0.342Z" style="fill:rgb(66,107,171);fill-rule:nonzero;"/>
                    </g>
                    <g transform="matrix(213.363,0,0,213.363,190.746,2190.08)">
                        <path d="M0.416,0.015C0.409,0.006 0.4,-0.007 0.387,-0.025C0.336,0.002 0.271,0.015 0.193,0.015C0.142,0.015 0.101,-0.004 0.072,-0.042C0.047,-0.075 0.035,-0.117 0.035,-0.166C0.035,-0.242 0.072,-0.296 0.147,-0.328C0.188,-0.345 0.258,-0.359 0.359,-0.37C0.357,-0.396 0.349,-0.414 0.336,-0.424C0.323,-0.433 0.3,-0.438 0.269,-0.438C0.223,-0.438 0.167,-0.425 0.102,-0.399C0.108,-0.434 0.112,-0.469 0.115,-0.506C0.154,-0.518 0.201,-0.524 0.257,-0.524L0.292,-0.524C0.349,-0.524 0.393,-0.513 0.422,-0.49C0.451,-0.466 0.468,-0.428 0.475,-0.373C0.476,-0.362 0.48,-0.304 0.486,-0.197C0.49,-0.128 0.5,-0.069 0.515,-0.022L0.416,0.015ZM0.359,-0.288C0.29,-0.278 0.248,-0.271 0.233,-0.266C0.184,-0.249 0.159,-0.221 0.159,-0.182C0.159,-0.153 0.165,-0.128 0.177,-0.108C0.19,-0.085 0.208,-0.073 0.231,-0.073C0.29,-0.073 0.337,-0.084 0.372,-0.107L0.359,-0.288Z" style="fill:rgb(66,107,171);fill-rule:nonzero;"/>
                    </g>
                    <g transform="matrix(213.363,0,0,213.363,306.176,2190.08)">
                        <path d="M0.199,-0.353C0.199,-0.28 0.201,-0.162 0.205,-0L0.072,0.005C0.075,-0.028 0.078,-0.074 0.079,-0.133C0.082,-0.257 0.083,-0.367 0.083,-0.462C0.083,-0.555 0.08,-0.651 0.074,-0.748C0.125,-0.757 0.173,-0.765 0.216,-0.773C0.205,-0.624 0.199,-0.484 0.199,-0.353Z" style="fill:rgb(66,107,171);fill-rule:nonzero;"/>
                    </g>
                    <g transform="matrix(213.363,0,0,213.363,365.064,2190.08)">
                        <path d="M0.463,0.008L0.437,-0.036C0.375,-0.004 0.322,0.012 0.277,0.012C0.204,0.012 0.146,-0.02 0.102,-0.084C0.064,-0.139 0.045,-0.202 0.045,-0.272C0.045,-0.348 0.074,-0.409 0.133,-0.456C0.185,-0.498 0.263,-0.519 0.366,-0.519C0.381,-0.519 0.399,-0.518 0.42,-0.516L0.42,-0.577C0.42,-0.616 0.418,-0.673 0.413,-0.748C0.446,-0.753 0.491,-0.762 0.549,-0.773C0.539,-0.644 0.534,-0.526 0.534,-0.417C0.534,-0.386 0.535,-0.339 0.538,-0.276C0.54,-0.213 0.541,-0.166 0.541,-0.135C0.541,-0.114 0.549,-0.083 0.564,-0.041L0.463,0.008ZM0.416,-0.431C0.399,-0.432 0.383,-0.432 0.37,-0.432C0.234,-0.432 0.166,-0.379 0.166,-0.273C0.166,-0.224 0.177,-0.182 0.199,-0.146C0.225,-0.104 0.26,-0.083 0.303,-0.083C0.344,-0.083 0.384,-0.097 0.423,-0.125C0.423,-0.154 0.422,-0.205 0.42,-0.278C0.417,-0.347 0.416,-0.398 0.416,-0.431Z" style="fill:rgb(66,107,171);fill-rule:nonzero;"/>
                    </g>
                    <g transform="matrix(213.363,0,0,213.363,495.642,2190.08)">
                        <path d="M0.198,-0.241C0.198,-0.168 0.2,-0.088 0.204,-0.002C0.199,-0.002 0.155,0.001 0.071,0.006C0.078,-0.062 0.082,-0.131 0.082,-0.201L0.082,-0.319C0.082,-0.374 0.079,-0.435 0.072,-0.502C0.115,-0.508 0.16,-0.516 0.207,-0.525C0.201,-0.425 0.198,-0.33 0.198,-0.241ZM0.161,-0.566L0.075,-0.567C0.109,-0.626 0.131,-0.681 0.14,-0.731L0.276,-0.731C0.261,-0.679 0.223,-0.624 0.161,-0.566Z" style="fill:rgb(66,107,171);fill-rule:nonzero;"/>
                    </g>
                    <g transform="matrix(213.363,0,0,213.363,553.677,2190.08)">
                        <path d="M0.443,0.007C0.438,-0.031 0.431,-0.08 0.421,-0.141C0.414,-0.171 0.405,-0.193 0.392,-0.206C0.379,-0.219 0.356,-0.228 0.325,-0.235C0.304,-0.24 0.263,-0.247 0.203,-0.255C0.203,-0.202 0.204,-0.117 0.207,-0.002C0.166,-0.002 0.122,-0.001 0.075,0.002C0.083,-0.105 0.087,-0.212 0.087,-0.318L0.087,-0.516C0.087,-0.578 0.084,-0.656 0.078,-0.75C0.117,-0.756 0.163,-0.764 0.216,-0.774C0.209,-0.669 0.205,-0.537 0.205,-0.378L0.205,-0.327C0.28,-0.369 0.34,-0.431 0.387,-0.512C0.413,-0.512 0.461,-0.513 0.532,-0.515C0.485,-0.436 0.424,-0.371 0.35,-0.319C0.417,-0.31 0.462,-0.296 0.485,-0.275C0.508,-0.254 0.527,-0.211 0.541,-0.146C0.546,-0.123 0.554,-0.076 0.564,-0.007L0.443,0.007Z" style="fill:rgb(66,107,171);fill-rule:nonzero;"/>
                    </g>
                </g>
                <g transform="matrix(3.97187,0,0,6.99077,-5288.76,-10390.2)">
                    <path d="M1433.39,1710.59C1433.39,1713.17 1434.58,1714.89 1435.65,1717.13C1436.23,1718.31 1436.46,1719.64 1437.07,1720.82C1438.01,1722.64 1439.28,1724.39 1440.37,1726.11C1440.56,1726.41 1440.59,1727.74 1440.67,1728.05C1440.96,1729.13 1441.36,1730.22 1441.88,1731.21C1442.1,1731.64 1442.37,1732.06 1442.66,1732.44C1443.42,1733.49 1445.38,1736.43 1447.13,1735.85C1447.47,1735.73 1447.68,1734.99 1447.79,1734.7C1448.42,1732.94 1447.19,1731.36 1446.65,1729.73C1446.41,1729.04 1446.35,1728.83 1446.09,1728.15C1445.2,1725.9 1444.79,1723.64 1444.12,1721.35C1443.72,1719.96 1442.82,1718.88 1442.2,1717.6C1441.36,1715.88 1440.83,1714.5 1439.53,1713.05C1439.03,1712.5 1438.66,1711.82 1438.15,1711.3C1437.92,1711.06 1437.58,1710.94 1437.28,1710.86C1436.63,1710.7 1433.83,1709.51 1433.76,1710.53" style="fill:rgb(184,197,201);"/>
                </g>
                <g transform="matrix(3.97187,0,0,6.99077,-5288.76,-10390.2)">
                    <path d="M1419.72,1719.86C1419.56,1719.93 1419.69,1721.28 1419.69,1721.41C1419.69,1723.38 1420.41,1725.08 1421.53,1726.71C1423.2,1729.13 1424.66,1732.06 1426.68,1734.21C1428.09,1735.71 1429.87,1736.81 1431.34,1738.26C1432.63,1739.53 1434.87,1744.13 1437.17,1743.36C1437.74,1743.18 1438.29,1742.72 1438.74,1742.35C1439.08,1742.07 1439.44,1741.74 1439.69,1741.37C1440.08,1740.8 1440.61,1739.62 1439.99,1739.01C1439.55,1738.56 1438.77,1738.37 1438.26,1737.93C1437.39,1737.2 1435.95,1734.92 1435.21,1734.06C1433.31,1731.9 1432.25,1729.08 1430.42,1726.92C1429.58,1725.92 1428.46,1725.02 1427.5,1724.14C1427.06,1723.74 1426.61,1723.35 1426.14,1722.97C1425.71,1722.63 1425.34,1722.24 1424.92,1721.89C1423.79,1720.92 1422.77,1720.11 1421.36,1719.64C1420.9,1719.49 1419.98,1719.06 1419.98,1719.82" style="fill:rgb(221,211,177);"/>
                </g>
                <g transform="matrix(3.97187,0,0,6.99077,-5288.76,-10390.2)">
                    <path d="M1432.74,1745.8C1432.22,1745.8 1431.52,1745.15 1431.02,1744.97C1429.08,1744.24 1427.32,1743.31 1425.41,1742.46C1423.51,1741.6 1421.19,1742.42 1419.55,1743.51C1419.05,1743.85 1417.83,1745.12 1418.26,1745.86C1418.84,1746.83 1420.71,1747.14 1421.73,1747.29C1423.27,1747.53 1424.78,1747.57 1426.33,1747.66C1427.78,1747.75 1429.24,1748.7 1430.68,1748.48C1431.51,1748.35 1432.79,1746.65 1432.79,1745.73" style="fill:rgb(222,196,178);"/>
                </g>
                <g transform="matrix(3.97187,0,0,6.99077,-5288.76,-10390.2)">
                    <path d="M1424.89,1754.94C1421.93,1754.94 1418.13,1754.76 1415.52,1753.26C1414.7,1752.79 1414.1,1752.09 1413.42,1751.46C1412.45,1750.58 1411.03,1749.74 1409.84,1749.19C1408.63,1748.63 1405.79,1747.46 1405.29,1749.25C1404.67,1751.5 1406.7,1753.02 1408.46,1753.94C1409.56,1754.51 1410.73,1754.89 1411.84,1755.41C1412.6,1755.77 1413.32,1756.15 1414.02,1756.61C1414.6,1756.98 1415.16,1757.24 1415.78,1757.52C1418.27,1758.65 1423.52,1760.84 1424.33,1756.53C1424.45,1755.92 1424.54,1755.38 1424.54,1754.76" style="fill:rgb(170,195,233);"/>
                </g>
                <g transform="matrix(3.97187,0,0,6.99077,-5288.76,-10390.2)">
                    <path d="M1419.87,1763.3C1418.77,1763.3 1417.61,1763.41 1416.52,1763.26C1415.72,1763.16 1414.96,1762.83 1414.16,1762.7C1413.5,1762.61 1412.82,1762.72 1412.17,1762.58C1411.41,1762.41 1410.78,1761.99 1409.99,1761.92C1409.7,1761.89 1408.16,1761.61 1407.96,1761.86C1407.64,1762.28 1407.59,1762.96 1407.63,1763.45C1407.69,1764.34 1408.7,1765.01 1409.4,1765.38C1411.02,1766.21 1412.85,1766.72 1414.6,1767.2C1415.4,1767.42 1416.71,1767.83 1417.55,1767.48C1417.96,1767.31 1418.28,1766.95 1418.56,1766.62C1419.27,1765.77 1419.89,1764.82 1420.48,1763.89C1420.63,1763.66 1420.96,1763.11 1420.85,1762.81C1420.81,1762.72 1419.83,1762.95 1419.83,1762.99" style="fill:rgb(184,197,201);"/>
                </g>
                <g transform="matrix(3.97187,0,0,6.99077,-5288.76,-10390.2)">
                    <path d="M1417.33,1771.11C1416.17,1771.11 1415.37,1772 1414.5,1772.67C1413.01,1773.8 1411.41,1774.99 1409.68,1775.71C1407.74,1776.51 1405.95,1777.12 1404.23,1778.41C1402.98,1779.35 1401.5,1780.11 1400.33,1781.15C1399.62,1781.78 1399.09,1782.61 1398.43,1783.29C1398.07,1783.65 1397.01,1785.05 1397.54,1785.6C1397.92,1786 1398.93,1785.82 1399.4,1785.82C1401.21,1785.82 1402.63,1785.24 1404.35,1784.84C1407.41,1784.13 1409.94,1782.24 1412.48,1780.39C1413.62,1779.56 1414.95,1778.94 1415.72,1777.7C1416.69,1776.12 1416.76,1774.08 1416.87,1772.28C1416.9,1771.79 1417.2,1771.43 1417.2,1770.93" style="fill:rgb(221,211,177);"/>
                </g>
                <g transform="matrix(3.97187,0,0,6.99077,-5288.76,-10390.2)">
                    <path d="M1416.03,1781.09C1414.31,1781.09 1413.03,1781.98 1411.54,1782.77C1410.53,1783.31 1409.43,1783.63 1408.45,1784.22C1405.97,1785.73 1403.82,1787.77 1401.78,1789.81C1401.46,1790.13 1401.08,1790.38 1400.77,1790.7C1399.83,1791.65 1397.6,1795.06 1400.26,1795.43C1404.72,1796.06 1407.37,1791.01 1410.44,1788.78C1411.79,1787.8 1413.64,1787.81 1414.85,1786.5C1416.02,1785.22 1416.59,1784.09 1416.59,1782.36C1416.59,1781.97 1416.7,1781.18 1416.3,1780.92" style="fill:rgb(222,196,178);"/>
                </g>
                <g transform="matrix(3.97187,0,0,6.99077,-5288.76,-10390.2)">
                    <path d="M1416.79,1791.38C1416.61,1791.32 1415.85,1792.47 1415.76,1792.57C1414.43,1794.19 1413.18,1795.88 1411.93,1797.56C1410.15,1799.97 1407.82,1802.03 1406.2,1804.54C1404.41,1807.32 1403.44,1811.05 1403.44,1814.34C1403.44,1815.73 1403.2,1817.49 1403.92,1818.75C1404.11,1819.07 1404.45,1819.18 1404.78,1819.31C1406.41,1819.94 1407.37,1817.65 1407.87,1816.29C1408.06,1815.79 1408.15,1815.43 1408.28,1814.9C1409.01,1811.78 1409.56,1809.14 1411.28,1806.38C1412.71,1804.11 1414.13,1801.88 1415.47,1799.56C1416.31,1798.1 1417.51,1796.65 1417.8,1794.95C1417.89,1794.39 1418.05,1793.33 1417.81,1792.77C1417.67,1792.43 1416.97,1792.13 1416.97,1791.78" style="fill:rgb(170,195,233);"/>
                </g>
                <g transform="matrix(3.97187,0,0,6.99077,-5288.76,-10390.2)">
                    <path d="M1420.92,1805.35C1420.2,1805.35 1418.45,1807.41 1417.96,1807.87C1415.86,1809.83 1413.48,1811.39 1412.16,1814C1411.89,1814.53 1411.08,1816.22 1411.77,1816.78C1413.04,1817.79 1415.12,1817.26 1416.34,1816.54C1417.34,1815.96 1417.99,1815.17 1418.72,1814.28C1420.27,1812.39 1423.68,1809.3 1423.79,1806.65C1423.81,1806.18 1423.95,1805.47 1423.47,1805.2C1423.05,1804.96 1421.11,1804.63 1421.11,1805.52" style="fill:rgb(184,197,201);"/>
                </g>
                <g transform="matrix(3.97187,0,0,6.99077,-5288.76,-10390.2)">
                    <path d="M1425.02,1812.02C1425.02,1814.22 1423.72,1816.59 1423.09,1818.68C1422.46,1820.77 1422.08,1823.02 1421.29,1825.05C1420.43,1827.23 1419.22,1829.25 1418.3,1831.4C1417.74,1832.71 1417.58,1833.68 1417.58,1835.1C1417.58,1836.01 1417.5,1836.6 1418.53,1836.85C1420.81,1837.4 1422.51,1833.87 1423.19,1832.36C1424.42,1829.6 1426.25,1827.03 1427.39,1824.24C1428.16,1822.35 1428.55,1820.36 1428.99,1818.37C1429.52,1815.97 1428.82,1814.22 1426.76,1813C1426.52,1812.86 1425.96,1812.25 1425.71,1812.25" style="fill:rgb(221,211,177);"/>
                </g>
                <g transform="matrix(3.97187,0,0,6.99077,-5288.76,-10390.2)">
                    <path d="M1439.74,1825.52C1438.62,1825.52 1437.41,1826.31 1436.46,1826.83C1433.76,1828.32 1431.66,1830.62 1429.25,1832.49C1427.28,1834.01 1425.31,1835.6 1423.42,1837.21C1421.69,1838.7 1419.83,1839.96 1418.07,1841.42C1417.61,1841.8 1417.16,1842.21 1416.66,1842.55C1416.64,1842.56 1416.28,1842.76 1416.28,1842.8C1416.29,1843.26 1418.06,1843.61 1418.2,1843.62C1420.34,1843.85 1422.86,1844.4 1425,1843.98C1427.79,1843.44 1429.58,1841.34 1431.48,1839.44C1432.52,1838.39 1433.73,1837.42 1434.7,1836.3C1435.76,1835.07 1436.74,1833.74 1437.9,1832.59C1439.38,1831.12 1441.96,1829.7 1441.82,1827.21C1441.76,1826.27 1440.37,1825.95 1439.8,1825.37" style="fill:rgb(222,196,178);"/>
                </g>
                <g transform="matrix(3.97187,0,0,6.99077,-5288.76,-10390.2)">
                    <path d="M1444.5,1829.02C1444.5,1831.1 1444.64,1833.24 1444.42,1835.31C1444.29,1836.6 1444.08,1837.88 1443.89,1839.16C1443.77,1839.98 1443.62,1840.78 1443.43,1841.59C1442.81,1844.14 1442.13,1846.39 1442.13,1849.06C1442.13,1849.97 1442.24,1851.76 1443.05,1852.4C1443.85,1853.05 1445.67,1853.06 1446.65,1852.95C1447.12,1852.89 1447.49,1852.3 1447.75,1851.97C1448.7,1850.77 1449.41,1849.59 1449.69,1848.06C1450.31,1844.63 1449.4,1841.04 1449.84,1837.6C1449.97,1836.6 1450.52,1835.64 1450.74,1834.64C1451.02,1833.42 1451.01,1831.66 1450.86,1830.41C1450.83,1830.18 1450.23,1829.8 1450.09,1829.69C1449.07,1828.93 1447.57,1828.56 1446.33,1828.43C1446.03,1828.4 1445.19,1828.03 1444.98,1828.41" style="fill:rgb(170,195,233);"/>
                </g>
                <g transform="matrix(3.97187,0,0,6.99077,-5288.76,-10390.2)">
                    <path d="M1456.1,1832.19C1456.1,1836.14 1456.22,1840.12 1456.1,1844.08C1456.02,1846.6 1456.35,1849.57 1455.66,1852.01C1455.08,1854.1 1453.9,1856.65 1454.5,1858.91C1454.83,1860.13 1457.03,1861.16 1458.05,1860.2C1460,1858.33 1459.86,1854.48 1460.54,1852.05C1461.16,1849.84 1462.17,1847.68 1462.58,1845.42C1463,1843.08 1462.91,1840.6 1462.91,1838.23C1462.91,1836.97 1463.46,1834.08 1462.32,1833.03C1461.94,1832.68 1461.16,1832.59 1460.7,1832.49C1459.37,1832.19 1457.92,1832.13 1456.55,1832.13" style="fill:rgb(184,197,201);"/>
                </g>
                <g transform="matrix(3.97187,0,0,6.99077,-5288.76,-10390.2)">
                    <path d="M1466.18,1833.36L1466.18,1839.93C1466.18,1841.23 1466.02,1842.61 1466.4,1843.87C1467.06,1846.02 1467.05,1848.66 1469.77,1848.92C1470.03,1848.94 1470.56,1849.03 1470.82,1848.91C1471.28,1848.69 1471.54,1847.88 1471.68,1847.44C1472.19,1845.83 1471.89,1843.84 1471.89,1842.18C1471.89,1841.04 1471.94,1839.88 1471.86,1838.74C1471.8,1837.85 1471.77,1836.97 1471.77,1836.07C1471.77,1835.76 1471.91,1835.04 1471.75,1834.74C1470.92,1833.14 1468.06,1833.35 1466.55,1833.35" style="fill:rgb(221,211,177);"/>
                </g>
                <g transform="matrix(3.97187,0,0,6.99077,-5288.76,-10390.2)">
                    <path d="M1474.9,1834.28C1476.4,1834.42 1477.35,1837.02 1477.72,1838.18C1478.58,1840.91 1479.68,1843.65 1480.32,1846.45C1480.51,1847.32 1480.49,1848.2 1480.66,1849.07C1480.92,1850.37 1482.29,1853.71 1484.27,1852.68C1485.8,1851.88 1485.13,1848.89 1485.13,1847.48C1485.13,1845.43 1484.76,1843.59 1484.46,1841.59C1484.06,1838.93 1483.65,1835.76 1480.95,1834.51C1480.29,1834.21 1479.44,1834.23 1478.75,1834.13C1477.63,1833.96 1476.14,1833.53 1475.32,1834.18" style="fill:rgb(222,196,178);"/>
                </g>
                <g transform="matrix(3.97187,0,0,6.99077,-5288.76,-10390.2)">
                    <path d="M1484.65,1833.81C1484.65,1834.36 1485.58,1834.84 1485.92,1835.14C1486.96,1836.04 1487.89,1837.04 1488.98,1837.88C1489.98,1838.66 1491.09,1839.25 1492.04,1840.11C1493.62,1841.57 1494.69,1843.28 1496.08,1844.89C1496.79,1845.71 1497.65,1846.39 1498.36,1847.2C1499.53,1848.53 1500.05,1850.4 1501.55,1851.47C1501.99,1851.78 1502.51,1851.72 1503.02,1851.76C1504.18,1851.83 1507.04,1852.22 1507.38,1850.51C1507.73,1848.71 1506.41,1846.97 1505.71,1845.39C1504.79,1843.34 1503.14,1840.79 1501.43,1839.3C1500.16,1838.21 1498.54,1837.73 1497.2,1836.76C1495.75,1835.7 1494.53,1834.36 1493.11,1833.26C1491.28,1831.84 1489.18,1831.8 1486.98,1832.5C1486.32,1832.71 1485.22,1832.85 1484.89,1833.52" style="fill:rgb(170,195,233);"/>
                </g>
                <g transform="matrix(3.97187,0,0,6.99077,-5288.76,-10390.2)">
                    <path d="M1495.96,1829.01C1496.19,1829.16 1497,1829.07 1497.25,1829.13C1499.01,1829.57 1501.04,1830.09 1502.52,1831.21C1503.88,1832.23 1504.79,1833.91 1505.92,1835.16C1506.85,1836.21 1508.36,1838.72 1510.18,1838.22C1510.52,1838.13 1510.63,1837.25 1510.71,1836.97C1511.13,1835.45 1511.15,1833.63 1510.34,1832.22C1509.68,1831.08 1508.36,1830.4 1507.29,1829.72C1505.09,1828.32 1503.2,1827.05 1500.56,1827.05C1499.16,1827.05 1497.73,1827.22 1497.06,1828.54C1496.99,1828.68 1496.53,1828.6 1496.53,1828.8" style="fill:rgb(184,197,201);"/>
                </g>
                <g transform="matrix(3.97187,0,0,6.99077,-5288.76,-10390.2)">
                    <path d="M1511.12,1822.08C1511.27,1822.65 1512.08,1823.33 1512.46,1823.71C1513.57,1824.81 1514.95,1825.58 1516.12,1826.62C1519.4,1829.54 1521.02,1834.01 1524.64,1836.57C1526.09,1837.59 1527.33,1838.9 1529.05,1839.45C1529.97,1839.74 1530.97,1839.23 1530.84,1838.12C1530.73,1837.07 1529.55,1836.11 1529.14,1835.15C1528.32,1833.2 1527.77,1831.1 1526.54,1829.36C1525.53,1827.92 1524.07,1826.88 1522.74,1825.77C1520.91,1824.23 1519.06,1822.7 1517.36,1821.02C1516.6,1820.28 1514.87,1819.65 1513.8,1819.82C1513.34,1819.89 1511.61,1820.89 1511.33,1821.35C1511.25,1821.49 1511.45,1821.84 1511.45,1821.97" style="fill:rgb(221,211,177);"/>
                </g>
                <g transform="matrix(3.97187,0,0,6.99077,-5288.76,-10390.2)">
                    <path d="M1515.51,1818.1C1517.82,1818.1 1521.22,1818.24 1523.25,1819.62C1524.64,1820.56 1525.68,1821.89 1527.2,1822.64C1527.7,1822.88 1528.52,1823.18 1529.09,1822.97C1529.67,1822.76 1529.84,1821.47 1529.84,1820.98C1529.84,1819.29 1528.05,1817.38 1526.85,1816.34C1526.34,1815.88 1525.81,1815.74 1525.19,1815.48C1523.77,1814.89 1522.74,1814.21 1521.16,1814.13C1520.6,1814.11 1519.79,1813.88 1519.26,1814.16C1517.74,1815 1517.09,1816.79 1515.91,1817.93" style="fill:rgb(222,196,178);"/>
                </g>
                <g transform="matrix(3.97187,0,0,6.99077,-5288.76,-10390.2)">
                    <path d="M1522.4,1810.58C1523.22,1811 1524.14,1811.26 1524.88,1811.87C1526.63,1813.32 1527.73,1815.38 1529.68,1816.63C1530.25,1817 1530.88,1817.17 1531.5,1817.45C1532.04,1817.7 1532.52,1818.06 1533.06,1818.32C1533.96,1818.77 1534.67,1819.04 1535.37,1819.82C1536.93,1821.53 1538.65,1822.49 1540.97,1822.73C1541.23,1822.76 1541.98,1822.87 1542.22,1822.71C1542.42,1822.58 1542.56,1822.24 1542.68,1822.03C1543.22,1821.12 1543.13,1819.9 1542.58,1819C1541.57,1817.35 1539.84,1816.45 1538.1,1815.75C1537.19,1815.39 1536.2,1815.16 1535.35,1814.67C1534.77,1814.33 1534.41,1813.72 1533.95,1813.24C1532.99,1812.23 1531.98,1811.21 1531.14,1810.09C1530.17,1808.76 1529.26,1807.37 1527.71,1806.65C1527.18,1806.4 1526.56,1806.47 1525.99,1806.47C1525.76,1806.47 1525.49,1806.43 1525.27,1806.53C1524.86,1806.71 1524.59,1807.17 1524.34,1807.52C1523.94,1808.06 1523.5,1808.51 1523.14,1809.09C1522.94,1809.42 1522.79,1809.78 1522.61,1810.12C1522.54,1810.24 1522.39,1810.35 1522.39,1810.51" style="fill:rgb(170,195,233);"/>
                </g>
                <g transform="matrix(3.97187,0,0,6.99077,-5288.76,-10390.2)">
                    <path d="M1526.48,1801.96C1527.15,1802.08 1527.84,1802.75 1528.37,1803.13C1529.7,1804.09 1531.36,1804.71 1532.5,1805.93C1532.82,1806.28 1532.99,1806.75 1533.32,1807.07C1533.82,1807.55 1534.5,1807.92 1535.08,1808.3C1535.51,1808.58 1536.18,1809.01 1536.72,1808.98C1537.03,1808.97 1537.13,1808.47 1537.19,1808.23C1537.33,1807.65 1537.36,1807.05 1537.55,1806.49C1537.72,1805.98 1538.04,1805.57 1537.92,1805.01C1537.83,1804.6 1537.55,1804.24 1537.33,1803.89C1536.79,1803.05 1536.17,1802.42 1535.51,1801.67C1534.16,1800.18 1532.8,1798.25 1530.9,1797.39C1530.5,1797.21 1530.07,1797.23 1529.64,1797.23L1528.52,1797.23C1528.41,1797.23 1528.18,1797.18 1528.08,1797.24C1527.85,1797.4 1527.76,1797.94 1527.71,1798.18C1527.55,1798.87 1527.56,1799.53 1527.56,1800.22C1527.56,1800.59 1527.59,1801.03 1527.38,1801.36C1527.16,1801.7 1526.66,1801.6 1526.37,1801.84" style="fill:rgb(184,197,201);"/>
                </g>
                <g transform="matrix(3.97187,0,0,6.99077,-5288.76,-10390.2)">
                    <path d="M1529.91,1789.23C1531.61,1789.23 1533.31,1789.17 1535.01,1789.37C1535.52,1789.42 1536.03,1789.38 1536.54,1789.47C1538.06,1789.76 1539.41,1790.58 1540.81,1791.19C1541.57,1791.52 1542.38,1791.69 1543.14,1792.04C1543.43,1792.17 1543.75,1792.27 1544.07,1792.31C1544.66,1792.38 1545.24,1792.31 1545.83,1792.4C1546.07,1792.43 1546.42,1792.47 1546.56,1792.71C1546.64,1792.86 1546.58,1793.18 1546.58,1793.35C1546.58,1793.52 1546.62,1793.77 1546.55,1793.93C1546.38,1794.32 1545.88,1794.42 1545.51,1794.49C1544.56,1794.65 1543.61,1794.61 1542.65,1794.62C1541.59,1794.64 1540.51,1794.79 1539.46,1794.61C1537.37,1794.25 1535.3,1793.46 1533.17,1793.25C1532.28,1793.15 1531.34,1793.23 1530.45,1793.23C1530.26,1793.23 1529.65,1793.34 1529.46,1793.23C1529.32,1793.15 1529.39,1792.57 1529.39,1792.47C1529.39,1791.65 1529.56,1790.82 1529.68,1790.02C1529.69,1790 1529.79,1789.1 1529.86,1789.1" style="fill:rgb(221,211,177);"/>
                </g>
                <g transform="matrix(3.97187,0,0,6.99077,-5289.45,-10348.6)">
                    <path d="M1531.19,1772.58C1531.82,1772.47 1532.51,1772.59 1533.15,1772.52C1534.96,1772.35 1536.76,1771.95 1538.51,1771.49C1539.22,1771.3 1539.99,1771.15 1540.68,1770.86C1541.44,1770.55 1541.95,1769.87 1542.62,1769.43C1543.11,1769.11 1544.79,1768.75 1544.93,1769.59C1545.37,1772.38 1543.42,1774.29 1541.31,1775.77C1540.41,1776.39 1539.47,1777.11 1538.37,1777.34C1536.99,1777.62 1535.56,1777.34 1534.18,1777.29C1533.51,1777.27 1532.74,1777.21 1532.08,1777.33C1531.77,1777.39 1531.23,1777.65 1530.9,1777.52C1530.81,1777.49 1530.87,1777.02 1530.87,1777C1530.93,1776.28 1531.15,1775.62 1531.15,1774.9C1531.15,1774.27 1530.95,1773.65 1530.95,1773.02C1530.95,1772.88 1530.88,1772.45 1531.12,1772.45" style="fill:rgb(222,196,178);"/>
                </g>
                <g transform="matrix(3.97187,0,0,6.99077,-5288.76,-10390.2)">
                    <path d="M1528.74,1763.48C1531.36,1763.01 1533.62,1761.75 1536.09,1760.88C1536.95,1760.57 1537.89,1760.45 1538.78,1760.25C1540.83,1759.77 1542.83,1759.74 1544.93,1759.74C1547.48,1759.74 1549.94,1760.15 1552.22,1761.33C1552.86,1761.65 1554.19,1762.65 1553.67,1763.58C1553.18,1764.48 1552,1764.77 1551.09,1764.93C1550.17,1765.09 1549.28,1765.39 1548.35,1765.47C1547.34,1765.56 1546.34,1765.47 1545.33,1765.63C1543.6,1765.9 1541.92,1766.38 1540.19,1766.69C1538.54,1767 1536.88,1766.98 1535.22,1767.18C1534.46,1767.26 1533.79,1767.56 1533.06,1767.72C1532.66,1767.8 1532.26,1767.8 1531.86,1767.87C1531.25,1767.97 1530.9,1768.6 1530.29,1768.05C1530.2,1767.97 1530.12,1767.88 1530.07,1767.77C1529.97,1767.59 1529.92,1767.38 1529.86,1767.19C1529.8,1766.97 1529.71,1766.76 1529.65,1766.55C1529.52,1766.08 1529.42,1765.6 1529.31,1765.13C1529.21,1764.72 1529.15,1764.34 1529.13,1763.92C1529.13,1763.77 1528.84,1763.61 1528.84,1763.42" style="fill:rgb(170,195,233);"/>
                </g>
                <g transform="matrix(3.97187,0,0,6.99077,-5288.76,-10390.2)">
                    <path d="M1523.49,1754.49C1524.12,1754.21 1524.73,1753.74 1525.32,1753.37C1526.88,1752.38 1528.5,1751.21 1530.3,1750.66C1530.67,1750.56 1531.07,1750.58 1531.45,1750.54C1531.87,1750.49 1532.75,1750.12 1533.18,1750.32C1534.19,1750.78 1534.7,1752.13 1534.92,1753.11C1535.08,1753.81 1535.4,1754.46 1535.33,1755.18C1535.26,1756.07 1534.07,1756.4 1533.38,1756.62C1532.34,1756.95 1531.3,1757.33 1530.21,1757.48C1529.09,1757.63 1527.95,1757.46 1526.84,1757.75C1526.11,1757.94 1525.62,1758.52 1524.97,1758.86C1524.84,1758.93 1524.4,1759.18 1524.23,1759.07C1524.01,1758.93 1523.74,1758.23 1523.64,1758.02C1523.49,1757.74 1523.38,1757.47 1523.26,1757.17C1523.14,1756.87 1523.14,1756.84 1523.03,1756.57C1522.77,1755.88 1522.74,1755.32 1523.12,1754.69C1523.25,1754.48 1523.31,1754.31 1523.59,1754.31" style="fill:rgb(184,197,201);"/>
                </g>
                <g transform="matrix(3.97187,0,0,6.99077,-5288.76,-10390.2)">
                    <path d="M1517.6,1748.12C1518.25,1747.26 1519.01,1746.47 1519.76,1745.7C1520.35,1745.09 1520.96,1744.51 1521.51,1743.86C1522.48,1742.71 1523.3,1741.42 1524.86,1741.04C1525.5,1740.89 1526.25,1740.99 1526.9,1740.99C1527.86,1740.99 1529.04,1740.95 1529.67,1741.87C1530.32,1742.81 1529.7,1744.2 1529.13,1744.97C1528.78,1745.44 1528.45,1745.96 1528.05,1746.38C1527.44,1747.04 1526.64,1747.47 1525.96,1748.04C1525.22,1748.65 1524.55,1749.39 1523.9,1750.09C1523.24,1750.79 1522.61,1751.28 1521.83,1751.83C1521.64,1751.95 1521.3,1752.28 1521.04,1752.23C1520.95,1752.22 1520.93,1752.08 1520.88,1752C1520.65,1751.66 1520.43,1751.32 1520.2,1750.97C1519.67,1750.14 1518.98,1749.75 1518.25,1749.16C1518.17,1749.1 1518.1,1749.04 1518.02,1748.98C1517.94,1748.93 1517.05,1748.08 1517.67,1748.08" style="fill:rgb(221,211,177);"/>
                </g>
                <g transform="matrix(3.97187,0,0,6.99077,-5288.76,-10390.2)">
                    <path d="M1509.64,1741.44C1511.02,1740.43 1512.07,1739.05 1513.33,1737.92C1515.7,1735.79 1518.74,1733.67 1521.63,1732.36C1523.68,1731.43 1525.93,1731.43 1528.05,1730.75C1528.91,1730.48 1529.71,1730.05 1530.6,1729.87C1531.57,1729.67 1532.58,1729.75 1533.55,1729.57C1534.55,1729.38 1535.44,1728.96 1535.91,1730.05C1537.1,1732.77 1533.72,1734.37 1531.85,1735.19C1529.25,1736.33 1527.17,1738.08 1524.71,1739.44C1523.34,1740.2 1521.74,1740.33 1520.4,1741.13C1519.09,1741.93 1517.71,1742.68 1516.43,1743.52C1515.82,1743.92 1515.3,1744.58 1514.64,1744.89C1514.17,1745.13 1513.78,1744.92 1513.3,1744.72C1511.98,1744.18 1511.2,1743.47 1510.16,1742.55C1510.02,1742.42 1509.06,1741.23 1509.93,1741.23" style="fill:rgb(222,196,178);"/>
                </g>
                <g transform="matrix(1.43953,0,0,2.53368,-768.479,-2452.62)">
                    <path d="M838.883,1664.91C838.883,1664.91 905.258,1504.22 948.844,1466.81C1028.14,1398.76 1114.53,1385.96 1114.53,1385.96C1114.53,1385.96 1070.14,1465.91 1057.72,1523.95C1050.38,1558.28 1046.88,1689.38 1046.88,1689.38C1046.88,1689.38 1010.27,1647.67 943.864,1640.5C914.505,1637.33 876.929,1648.54 838.883,1664.91Z" style="fill:rgb(219,138,199);"/>
                </g>
                <g transform="matrix(1.44924,0,0,2.55076,567.231,2067.76)">
                    <g transform="matrix(1,0,0,1,-165,-150.5)">
                        <path d="M139,295C110,291 79,279 58,262C30,240 13,212 6,177C3,165 4,140 6,127C14,89 35,58 68,35C95,15 127,5 165,3C190,2 221,8 245,20C264,30 285,47 297,62C309,77 318,96 320,110C321,116 321,117 320,119C318,121 318,121 315,114C305,94 302,88 296,79C265,28 199,2 135,15C72,28 24,75 14,133C11,151 12,176 18,193C30,228 60,260 99,276C151,297 213,290 258,257C292,232 313,196 320,152C320,147 321,143 321,143C322,143 323,143 324,145C326,146 326,148 326,160C326,171 325,174 323,182C317,203 308,219 292,237C257,279 195,302 139,295ZM138,235C112,230 94,217 82,194C74,177 71,165 75,164C79,163 80,165 82,170C90,199 107,218 130,225C148,230 186,229 201,223C207,220 220,210 226,203C232,196 239,187 246,174C250,166 251,164 253,165C258,165 258,168 254,177C248,188 238,202 232,209C226,216 213,226 207,229C200,232 192,234 182,235C170,237 146,237 138,235ZM149,166C142,163 136,158 133,150L130,144L130,86C131,80 131,80 134,80L136,80L136,111C136,141 136,142 138,147C141,153 144,156 149,158C159,164 173,161 176,153C177,152 178,148 179,146C180,142 180,141 183,141C185,141 185,141 185,145C184,154 180,161 173,165C168,168 156,168 149,166ZM94,97C86,95 85,84 92,80C100,76 109,84 104,93C104,94 97,98 96,97L94,97ZM215,97C207,95 206,84 213,80C222,75 231,86 224,94C223,95 221,97 221,97L215,97Z" style="fill-rule:nonzero;"/>
                    </g>
                </g>
                <g transform="matrix(0.510633,0,0,0.912104,-25.4988,327.102)">
                    <ellipse cx="976.991" cy="1725.21" rx="13.246" ry="12.926" style="fill:white;"/>
                </g>
                <g transform="matrix(0.510633,0,0,0.912104,148.103,327.102)">
                    <ellipse cx="976.991" cy="1725.21" rx="13.246" ry="12.926" style="fill:white;stroke:black;stroke-width:0.95px;"/>
                </g>
            </g>
        </g>
    </g>
</svg>
